<svg viewBox="0 0 24 28" fill="none" xmlns="http://www.w3.org/2000/svg">
<path d="M23.6947 21C23.883 20.6618 24 20.2808 24 19.9386V8.06135C24 7.71919 23.8831 7.33824 23.6947 7.00006L12 14L23.6947 21Z" fill="#00599C"/>
<path d="M13.0392 27.7433L22.9608 21.8047C23.2466 21.6336 23.5064 21.3382 23.6947 21L12 14L0.305344 21C0.493657 21.3382 0.7535 21.6337 1.03923 21.8047L10.9608 27.7433C11.5323 28.0855 12.4677 28.0855 13.0392 27.7433Z" fill="#004482"/>
<path d="M23.6947 7.00006C23.5064 6.6618 23.2465 6.36629 22.9608 6.19521L13.0392 0.256623C12.4677 -0.0855409 11.5323 -0.0855409 10.9608 0.256623L1.03922 6.19521C0.467608 6.53729 0 7.37709 0 8.06133V19.9386C0 20.2807 0.116951 20.6619 0.305344 21L12 14L23.6947 7.00006Z" fill="#659AD2"/>
<path d="M12.0385 22C7.60606 22 4 18.4112 4 14C4 9.58878 7.60606 6 12.0385 6C14.8458 6 17.4674 7.47569 18.919 9.86178L15.4765 11.9265C14.7492 10.736 13.4399 10 12.0385 10C9.82224 10 8.01925 11.7944 8.01925 14C8.01925 16.2056 9.82224 18 12.0385 18C13.4362 18 14.7421 17.2681 15.4707 16.0832L18.9205 18.1359C17.4692 20.5234 14.8467 22 12.0385 22Z" fill="white"/>
<path d="M19 13.4948H17.9999V12.5H17.0001V13.4948H16V14.4895H17.0001V15.4844H17.9999V14.4895H19V13.4948Z" fill="white"/>
<path d="M23 13.5H21.9999V12.5H21.0001V13.5H20V14.4999H21.0001V15.5H21.9999V14.4999H23V13.5Z" fill="white"/>
</svg>
