<svg viewBox="0 0 151 180" fill="none" xmlns="http://www.w3.org/2000/svg">
<path d="M0 130H40V180C0 180 0 146.667 0 130Z" fill="#0D0D0D"/>
<path d="M50 110V180C63.3333 180 90 172 90 140V70C76.6667 70 50 78 50 110Z" fill="#0D0D0D"/>
<path d="M50 0V70C63.3333 70 90 62 90 30V0H50Z" fill="#0D0D0D"/>
<path d="M100 90V0C156 0 153.5 54 120 60L150 90H100Z" fill="#0D0D0D"/>
<path d="M102.06 119.14H110.556C115.668 119.14 117.432 115.684 117.432 110.608C117.432 109.276 117.324 107.836 117.108 106.324H124.092C122.4 111.112 121.86 115.648 121.86 119.464C121.86 126.448 123.66 131.2 123.66 131.2H116.136C114.876 131.2 113.652 129.832 113.508 128.248V127.888C113.508 126.196 114.228 124.468 115.236 122.848C117.432 119.248 117.576 118.132 117.72 116.98C116.028 120.328 113.076 125.872 106.596 125.872H100.08V121.336C100.08 119.032 100.836 116.764 102.384 114.964C105.516 111.256 106.164 106.972 106.164 103.984C106.164 101.788 105.804 100.276 105.804 100.276H116.46C116.46 109.672 109.476 111.76 105.444 114.604C103.14 116.224 102.096 117.34 102.06 119.14Z" fill="#060606"/>
<path d="M137.507 117.232C134.806 118.492 133.727 120.292 133.727 122.128C133.727 124 134.878 125.944 136.535 127.348C138.731 129.22 142.187 129.4 144.167 129.4H145.751C141.935 128.572 139.523 126.34 139.055 124.288C139.019 124.072 138.982 123.856 138.982 123.64C138.982 121.768 140.711 120.148 142.727 120.148H150.107C148.667 121.948 148.199 123.784 148.199 125.44C148.199 128.716 150.107 131.2 150.107 131.2H126.274C125.878 129.904 125.699 128.752 125.699 127.672C125.699 120.184 134.158 117.124 137.074 115.72C140.098 114.28 141.395 111.58 141.395 108.988C141.395 107.332 140.855 105.712 139.883 104.524C137.579 101.752 132.286 101.752 132.286 101.752C137.506 104.776 138.479 107.188 138.479 109.42V109.816C138.442 111.472 136.211 114.244 132.611 114.244H126.274C128.254 112.264 128.867 109.924 128.867 107.728C128.867 103.768 126.814 100.276 126.814 100.276H139.811C142.907 100.276 150.107 101.176 150.107 106.972C150.107 110.932 146.291 113.092 137.507 117.232Z" fill="#060606"/>
</svg>
