<svg width="261" height="218" viewBox="0 0 261 218" fill="none" xmlns="http://www.w3.org/2000/svg">
<path d="M132.072 108.621V2.57854C132.072 1.1539 130.918 0 129.494 0H99.0668C98.1063 0 97.2232 0.683313 96.7848 1.53423L39.9538 111.199L29.3754 131.609C28.4858 133.323 29.7299 135.373 31.6638 135.373H105.313C106.738 135.373 107.892 136.527 107.892 137.952V214.986C107.892 216.41 109.046 217.564 110.47 217.564H129.487C130.912 217.564 132.066 216.41 132.066 214.986V137.952C132.066 136.527 133.22 135.373 134.644 135.373H159.301C160.726 135.373 161.88 134.219 161.88 132.795V113.778C161.88 112.353 160.726 111.199 159.301 111.199H134.644C133.22 111.199 132.066 110.046 132.066 108.621H132.072ZM70.4257 108.376L104.25 43.1067C105.184 41.3082 107.898 41.9722 107.898 43.9963V108.621C107.898 110.046 106.744 111.199 105.32 111.199H72.1404C70.69 111.199 69.7553 109.665 70.4257 108.376Z" fill="white"/>
<path d="M21.0402 147.699L0.21855 187.879C-0.445423 189.168 0.48285 190.702 1.93328 190.702H26.5841C27.3061 190.702 27.9701 190.302 28.2988 189.658L49.1205 149.478C49.7845 148.189 48.8562 146.654 47.4058 146.654H22.755C22.033 146.654 21.369 147.054 21.0402 147.699Z" fill="#2462FF"/>
<path d="M258.42 161.159H198.283C196.652 161.159 195.756 159.257 196.787 157.993C219.414 130.293 241.712 110.677 255.275 87.4704C257.64 83.4221 259.258 78.9741 259.968 74.3392C272.248 -6.09189 146.815 -7.80662 149.664 70.0266C149.716 71.4125 150.857 72.5149 152.249 72.5149H176.165C177.57 72.5149 178.724 71.3867 178.737 69.975C178.86 57.9203 186.621 47.2194 197.554 43.416C197.863 43.3129 198.173 43.2033 198.489 43.1066C198.553 43.0873 198.618 43.0679 198.689 43.0486C201.119 42.3524 203.678 41.9785 206.334 41.9785C209.409 41.9785 212.361 42.4813 215.12 43.4032C215.198 43.4289 215.275 43.4612 215.352 43.487C215.043 43.3838 214.74 43.2742 214.431 43.1775C215.062 43.3838 215.688 43.6094 216.294 43.8673C228.703 49.2371 234.891 65.4883 228.825 78.0587C228.4 78.9419 227.865 79.7606 227.246 80.5212C205.715 106.925 173.142 141.723 150.431 167.682C150.025 168.146 149.8 168.739 149.8 169.358C149.8 172.124 149.8 180.188 149.8 184.365C149.8 185.79 150.953 186.937 152.372 186.937H258.42C259.845 186.937 260.999 185.784 260.999 184.359V163.731C260.999 162.306 259.845 161.152 258.42 161.152V161.159Z" fill="white"/>
</svg>
