<svg viewBox="0 0 26 30" fill="none" xmlns="http://www.w3.org/2000/svg">
<path fill-rule="evenodd" clip-rule="evenodd" d="M9.83721 10.0942C9.82052 10.0942 9.78822 10.0942 9.77153 10.0942C9.49447 10.0605 9.26639 9.80655 9.26639 9.51887C9.24969 9.24802 9.10276 2.9183 12.6734 1.47979C13.5703 1.12435 14.4026 1.192 15.1036 1.71676C15.9671 2.34294 16.5869 3.59531 16.9618 5.42315C17.2222 6.7094 17.2712 7.82635 17.2712 7.87717C17.2879 8.14791 17.0765 8.3511 16.7983 8.30027C16.5212 8.26639 16.2932 8.0126 16.2932 7.74175C16.2442 6.59092 15.8692 3.42611 14.6307 2.51214C14.2391 2.22446 13.7494 2.19058 13.163 2.42754C10.0975 3.66297 10.2444 9.60347 10.2444 9.67112C10.2444 9.90809 10.082 10.0942 9.83721 10.0942Z" fill="#595961"/>
<path fill-rule="evenodd" clip-rule="evenodd" d="M14.9233 1.75054C14.2713 1.27661 13.5057 1.20895 12.6734 1.53052C11.2224 2.12282 10.1954 3.67992 9.69022 6.04934C9.31524 7.79247 9.36416 9.36651 9.36416 9.43417C9.36416 9.51877 9.39644 9.60348 9.46209 9.67113C9.52663 9.73879 9.59228 9.78962 9.67351 9.78962C9.6902 9.78962 9.7069 9.78962 9.72248 9.78962C9.86936 9.78962 9.98395 9.67113 9.98395 9.51877C9.98395 9.45111 9.83712 3.40907 12.9839 2.13976C13.6192 1.88596 14.1733 1.91974 14.6307 2.25824C15.9503 3.22293 16.342 6.48939 16.3909 7.65716C16.3909 7.82636 16.5378 7.99566 16.717 8.01249C16.8806 8.02944 17.0107 7.91095 17.0107 7.74176C16.994 7.53868 16.8149 3.13833 14.9233 1.75054Z" fill="#B2B2C2"/>
<path fill-rule="evenodd" clip-rule="evenodd" d="M9.69022 9.58651C9.67353 9.58651 9.67354 9.58651 9.65796 9.58651C9.56004 9.56956 9.47767 9.46802 9.46209 9.36648C9.46209 9.29872 9.41317 7.75867 9.78815 6.01543C10.2766 3.69683 11.3047 2.15667 12.7223 1.5812C13.5213 1.25964 14.239 1.32741 14.8588 1.76745C16.6847 3.10442 16.8639 7.43711 16.8639 7.62324C16.8639 7.72479 16.7826 7.79244 16.6847 7.77561C16.5868 7.75867 16.5056 7.67407 16.4889 7.55559C16.4889 7.50476 16.3097 3.25679 14.6629 2.03819C14.1733 1.68285 13.5703 1.63203 12.8859 1.90277C9.69023 3.23985 9.83712 9.36648 9.83712 9.43414C9.8527 9.51874 9.78814 9.58651 9.69022 9.58651Z" fill="#B2B2C2"/>
<path fill-rule="evenodd" clip-rule="evenodd" d="M11.0111 4.74624C11.1413 4.49244 11.2714 4.23854 11.386 3.9678C11.3371 4.0524 11.011 4.93249 10.0163 4.79706C9.99959 4.79706 10.6027 4.9832 11.0111 4.74624Z" fill="#595961"/>
<path fill-rule="evenodd" clip-rule="evenodd" d="M10.6516 5.82923C10.7495 5.55838 10.8474 5.2707 10.9131 4.99996C10.8808 5.1015 10.7172 6.01537 9.67351 6.01537C9.67351 6.01537 10.2766 6.13385 10.6516 5.82923Z" fill="#595961"/>
<path fill-rule="evenodd" clip-rule="evenodd" d="M16.3744 3.64617C16.2442 3.34144 16.0973 3.05376 15.9504 2.74914C15.9993 2.85068 16.489 3.81537 15.9348 4.50921C15.9348 4.50921 16.3588 4.17082 16.3744 3.64617Z" fill="#595961"/>
<path fill-rule="evenodd" clip-rule="evenodd" d="M15.4786 2.12297C15.2171 1.90295 14.9567 1.69987 14.6952 1.51373C14.7932 1.59833 15.6577 2.22451 15.6088 3.17237C15.5921 3.17237 15.739 2.61384 15.4786 2.12297Z" fill="#595961"/>
<path fill-rule="evenodd" clip-rule="evenodd" d="M11.4838 3.81515C11.6797 3.61207 11.8421 3.39205 12.0212 3.15508C11.9567 3.22274 11.4182 3.91669 10.4568 3.66279C10.4568 3.66279 11.0109 3.96752 11.4838 3.81515Z" fill="#595961"/>
<path fill-rule="evenodd" clip-rule="evenodd" d="M12.0869 3.03675C12.315 2.86756 12.5264 2.69825 12.739 2.51211C12.6577 2.56294 11.989 3.12135 11.0599 2.71519C11.0599 2.71519 11.5973 3.10441 12.0869 3.03675Z" fill="#595961"/>
<path fill-rule="evenodd" clip-rule="evenodd" d="M12.9672 2.47803C13.2442 2.39343 13.5057 2.29189 13.7661 2.19035C13.6682 2.22412 12.8369 2.52874 12.0213 1.88561C12.038 1.88561 12.462 2.39343 12.9672 2.47803Z" fill="#595961"/>
<path fill-rule="evenodd" clip-rule="evenodd" d="M13.7661 2.1737C13.9942 2.20759 14.2223 2.22453 14.4504 2.24148C14.3692 2.22453 13.6514 2.17371 13.2442 1.4967C13.2442 1.4967 13.4078 1.95368 13.7661 2.1737Z" fill="#595961"/>
<path fill-rule="evenodd" clip-rule="evenodd" d="M14.712 2.54567C14.8744 2.73192 15.0546 2.91807 15.2494 3.08726C15.1848 3.01961 14.6307 2.46108 14.7609 1.76724C14.7442 1.76724 14.5651 2.15646 14.712 2.54567Z" fill="#595961"/>
<path fill-rule="evenodd" clip-rule="evenodd" d="M16.6847 7.53866C16.6847 7.35241 16.5056 3.07055 14.7286 1.76746C14.3859 1.51356 14.0109 1.39507 13.6192 1.39507C13.3255 1.39507 13.0161 1.46273 12.6901 1.59815C11.2714 2.15668 10.2766 3.66296 9.78815 5.96462C9.41317 7.69091 9.46209 9.23107 9.46209 9.29873C9.46209 9.34955 9.51107 9.40027 9.56003 9.40027H9.57558C9.62454 9.40027 9.65796 9.36649 9.65796 9.31567C9.65796 9.24801 9.49436 3.07055 12.7713 1.75052C13.489 1.46273 14.1088 1.51356 14.6307 1.90278C16.3253 3.13831 16.5056 7.45406 16.5056 7.50477C16.5056 7.5556 16.5545 7.60631 16.6035 7.60631C16.6035 7.60631 16.6035 7.60631 16.6191 7.60631C16.6524 7.62325 16.6847 7.58937 16.6847 7.53866Z" fill="url(#paint0_linear_86_686)"/>
<path fill-rule="evenodd" clip-rule="evenodd" d="M16.9618 5.42315C16.5869 3.59531 15.9671 2.35988 15.1036 1.71676C14.6307 1.37836 14.1244 1.22601 13.5703 1.2599C14.0109 1.29367 14.4182 1.44604 14.7932 1.71677C15.6578 2.34307 16.2776 3.59544 16.6525 5.42327C16.9129 6.70953 16.9618 7.82647 16.9618 7.8773C16.9618 8.08038 16.8639 8.23274 16.7004 8.28346C16.7337 8.3004 16.766 8.3004 16.7827 8.3004C17.0598 8.33428 17.2712 8.14804 17.2556 7.8773C17.2712 7.82647 17.2222 6.72634 16.9618 5.42315Z" fill="url(#paint1_linear_86_686)"/>
<path fill-rule="evenodd" clip-rule="evenodd" d="M12.8537 2.42759C9.78816 3.66302 9.93498 9.60352 9.93498 9.67118C9.93498 9.87426 9.83708 10.0266 9.67351 10.0773C9.70689 10.0943 9.72251 10.0943 9.75589 10.0943C9.77147 10.0943 9.80483 10.0943 9.82041 10.0943C10.0652 10.0943 10.2276 9.90814 10.2276 9.67118C10.2276 9.60352 10.0819 3.67996 13.1463 2.44454C13.3588 2.35994 13.5546 2.30911 13.7338 2.29217C13.4723 2.24146 13.1797 2.29217 12.8537 2.42759Z" fill="url(#paint2_linear_86_686)"/>
<path fill-rule="evenodd" clip-rule="evenodd" d="M17.4993 3.89981L3.67388 8.33393C3.67388 8.33393 3.08749 8.50324 2.94061 8.68938C2.79373 8.87551 2.76145 9.40016 2.76145 9.40016L0.625 26.4938L16.6681 29.6079L17.9077 3.88287C17.7285 3.84899 17.5483 3.88287 17.4993 3.89981Z" fill="url(#paint3_linear_86_686)"/>
<path fill-rule="evenodd" clip-rule="evenodd" d="M22.2773 6.09999C22.2773 6.09999 22.2606 5.96456 22.1794 5.91385C22.1137 5.86302 22.0325 5.86302 22.0325 5.86302L19.7659 5.69382L18.1035 3.98447C18.0378 3.93365 17.9722 3.89987 17.891 3.88293L16.6525 29.608L25.3417 27.6617L22.2773 6.09999Z" fill="url(#paint4_linear_86_686)"/>
<path fill-rule="evenodd" clip-rule="evenodd" d="M11.7933 18.1839C11.5485 17.8454 11.2558 17.5408 10.9621 17.2699C10.6683 16.9992 10.359 16.7792 10.0485 16.5761C9.83713 16.4407 9.64129 16.3052 9.47772 16.1698C9.31526 16.0345 9.18506 15.8991 9.08714 15.7806C8.98923 15.6452 8.90798 15.5267 8.85902 15.3914C8.81006 15.256 8.79335 15.1205 8.79335 14.9851C8.79335 14.799 8.84234 14.6128 8.90799 14.4605C8.97252 14.3082 9.08713 14.1728 9.20063 14.0543C9.33193 13.9358 9.47771 13.8512 9.65796 13.7836C9.83711 13.7158 10.0485 13.682 10.2766 13.6651C10.5214 13.6481 10.7662 13.6651 10.9943 13.682C11.2224 13.6989 11.4349 13.7497 11.6464 13.8004C11.8422 13.8512 12.038 13.9189 12.2005 13.9867C12.364 14.0543 12.5265 14.122 12.6411 14.1897L13.7171 10.8726C13.5547 10.788 13.3589 10.7033 13.1463 10.6525C12.9182 10.5848 12.6734 10.5341 12.3963 10.5002C12.1193 10.4664 11.8255 10.4495 11.5162 10.4495C11.2068 10.4495 10.8809 10.4664 10.5381 10.5171C9.80486 10.6187 9.15169 10.8217 8.56529 11.1264C8.01116 11.4141 7.52155 11.7864 7.1143 12.2434C6.72262 12.6835 6.41326 13.1912 6.18516 13.7666C5.97263 14.3252 5.84247 14.9513 5.8102 15.6282C5.79351 16.0345 5.82577 16.4068 5.92369 16.7453C6.00492 17.0838 6.1362 17.4054 6.31535 17.71C6.47781 18.0146 6.69033 18.2854 6.91843 18.5392C7.14654 18.7932 7.4236 19.0301 7.70067 19.2501C7.92878 19.4193 8.12463 19.5885 8.2882 19.7409C8.45065 19.8933 8.58197 20.0455 8.67877 20.2148C8.77669 20.3671 8.84232 20.5195 8.89128 20.6886C8.94024 20.841 8.95694 21.0102 8.94024 21.1795C8.94024 21.3487 8.89132 21.5179 8.82567 21.6533C8.76114 21.7888 8.67877 21.9242 8.54858 22.0257C8.43509 22.1273 8.28823 22.1949 8.12466 22.2288C7.9622 22.2626 7.76637 22.2795 7.55384 22.2457C7.31016 22.2119 7.06531 22.1442 6.83721 22.0426C6.6091 21.958 6.37993 21.8395 6.16852 21.721C5.9571 21.6026 5.76127 21.4672 5.5977 21.3487C5.41855 21.2302 5.27165 21.0948 5.15816 20.9933L4.42373 23.5151C4.53834 23.6843 4.70083 23.8366 4.87998 23.9889C5.06024 24.1412 5.27168 24.2935 5.51647 24.4459C5.76127 24.5813 6.02165 24.7166 6.29871 24.8351C6.57578 24.9536 6.88619 25.0551 7.19552 25.1398H7.2612C7.92882 25.2921 8.56528 25.326 9.16837 25.2414C9.78815 25.1566 10.3589 24.9366 10.8474 24.5982C11.3526 24.2428 11.761 23.7689 12.0703 23.1427C12.3807 22.5165 12.5599 21.7549 12.5921 20.8917C12.6088 20.3501 12.5432 19.8763 12.3963 19.4363C12.2495 18.9286 12.0381 18.5392 11.7933 18.1839Z" fill="url(#paint5_linear_86_686)"/>
<path fill-rule="evenodd" clip-rule="evenodd" d="M4.52946 23.6529C4.49163 23.6081 4.456 23.5621 4.42373 23.5151L5.15816 20.9933C5.16817 21.0027 5.17928 21.0125 5.19041 21.0225C5.29945 21.12 5.43524 21.2412 5.5977 21.3487C5.76127 21.4672 5.9571 21.6026 6.16852 21.721C6.37993 21.8395 6.6091 21.958 6.83721 22.0426C7.06531 22.1442 7.31016 22.2119 7.55384 22.2457C7.76637 22.2795 7.9622 22.2626 8.12466 22.2288C8.28823 22.1949 8.43509 22.1273 8.54858 22.0257C8.67877 21.9242 8.76114 21.7888 8.82567 21.6533C8.89132 21.5179 8.94024 21.3487 8.94024 21.1795C8.95694 21.0102 8.94024 20.841 8.89128 20.6886C8.84232 20.5195 8.77669 20.3671 8.67877 20.2148C8.58642 20.0539 8.46399 19.9086 8.31155 19.7637C8.39167 19.8542 8.45957 19.9471 8.51631 20.0456C8.61423 20.198 8.67877 20.3503 8.72773 20.5196C8.77669 20.6718 8.79339 20.8411 8.7767 21.0103C8.7767 21.1796 8.72775 21.3488 8.66321 21.4843C8.59756 21.6197 8.51631 21.755 8.38612 21.8565C8.27151 21.9581 8.12466 22.0258 7.9622 22.0596C7.79863 22.0935 7.60279 22.1104 7.39138 22.0766C7.14658 22.0428 6.90176 21.975 6.67366 21.8735C6.44555 21.7889 6.21743 21.6704 6.0049 21.5519C5.79349 21.4334 5.59769 21.2981 5.43524 21.1796C5.27167 21.0721 5.13591 20.9508 5.02687 20.8533C5.01574 20.8433 5.00567 20.8336 4.99454 20.8242L4.26127 23.3459C4.33359 23.4536 4.42598 23.5545 4.52946 23.6529ZM6.9318 18.5548C6.8706 18.4942 6.81163 18.4327 6.75488 18.3702C6.52678 18.1163 6.31537 17.8455 6.1518 17.5409C5.97266 17.2362 5.84246 16.9146 5.76123 16.5762C5.66331 16.2377 5.6299 15.8653 5.64659 15.4592C5.67886 14.7821 5.8102 14.156 6.02161 13.5974C6.24972 13.0221 6.56019 12.5144 6.95075 12.0743C7.35911 11.6173 7.84754 11.245 8.40167 10.9573C8.98918 10.6527 9.64125 10.4496 10.3745 10.348C10.7172 10.2972 11.0433 10.2803 11.3526 10.2803C11.6631 10.2803 11.9568 10.2972 12.2339 10.3311C12.5109 10.365 12.7558 10.4157 12.9839 10.4835C13.1953 10.5342 13.3911 10.6188 13.5547 10.7034L13.5291 10.7825C13.4111 10.7313 13.2821 10.685 13.1463 10.6525C12.9182 10.5848 12.6734 10.5341 12.3963 10.5002C12.1193 10.4664 11.8255 10.4495 11.5162 10.4495C11.2068 10.4495 10.8809 10.4664 10.5381 10.5171C9.80486 10.6187 9.15169 10.8217 8.56529 11.1264C8.01116 11.4141 7.52155 11.7864 7.1143 12.2434C6.72262 12.6835 6.41326 13.1912 6.18516 13.7666C5.97263 14.3252 5.84247 14.9513 5.8102 15.6282C5.79351 16.0345 5.82577 16.4068 5.92369 16.7453C6.00492 17.0838 6.1362 17.4054 6.31535 17.71C6.47781 18.0146 6.69033 18.2854 6.91843 18.5392C6.92288 18.5443 6.92735 18.5497 6.9318 18.5548ZM9.14608 15.85C9.2351 15.9507 9.34642 16.0602 9.47772 16.1698C9.64129 16.3052 9.83713 16.4407 10.0485 16.5761C10.359 16.7792 10.6683 16.9992 10.9621 17.2699C11.0477 17.3488 11.1323 17.4305 11.2169 17.5151C11.0811 17.3692 10.9398 17.2311 10.7984 17.1009C10.5058 16.83 10.1954 16.61 9.88608 16.4069C9.67355 16.2715 9.47771 16.1362 9.31526 16.0007C9.25406 15.9503 9.19838 15.8998 9.14608 15.85Z" fill="black"/>
<path fill-rule="evenodd" clip-rule="evenodd" d="M20.3199 24.8185L19.7659 5.69382L19.6679 5.59237L19.9294 24.5476C19.9294 24.5476 17.6305 28.1694 17.2878 28.0679C16.7826 27.9156 18.2826 4.17069 18.2826 4.17069L18.119 4.0015C18.0545 3.95067 17.9721 3.9169 17.9076 3.89996L16.6847 29.2696L16.668 29.625L20.3199 24.8185Z" fill="url(#paint6_linear_86_686)"/>
<path fill-rule="evenodd" clip-rule="evenodd" d="M14.0754 5.00009C13.8806 5.79547 13.6359 6.54014 13.4567 6.99712C13.3421 7.26797 13.4723 7.52177 13.7171 7.55565C13.9786 7.58953 14.2713 7.40328 14.3692 7.13255C14.3859 7.08172 14.8254 5.98172 15.1035 4.67852V4.66158L14.0754 5.00009Z" fill="url(#paint7_linear_86_686)"/>
<path fill-rule="evenodd" clip-rule="evenodd" d="M6.72269 7.36931C6.49459 7.87701 6.26648 8.31705 6.10291 8.62167C5.95714 8.87558 6.03836 9.14632 6.28315 9.21397C6.52684 9.29868 6.85284 9.14632 6.99972 8.89241C7.01641 8.85864 7.48936 8.02937 7.9133 6.97997L6.72269 7.36931Z" fill="url(#paint8_linear_86_686)"/>
<path fill-rule="evenodd" clip-rule="evenodd" d="M16.6681 29.6079L20.3199 24.8185L25.375 27.6616L16.6681 29.6079Z" fill="url(#paint9_linear_86_686)"/>
<path fill-rule="evenodd" clip-rule="evenodd" d="M16.6681 29.6079L20.2877 24.8182L25.375 27.6616L16.6681 29.6079Z" fill="url(#paint10_linear_86_686)"/>
<path fill-rule="evenodd" clip-rule="evenodd" d="M16.6681 29.6079L20.2877 24.8182L25.375 27.6616L16.6681 29.6079Z" fill="url(#paint11_linear_86_686)"/>
<path fill-rule="evenodd" clip-rule="evenodd" d="M13.1141 16.2039C15.0057 18.861 16.2774 21.7382 16.9128 24.5307L17.9076 3.86607C17.7284 3.83229 17.5482 3.86607 17.4992 3.88301L3.67388 8.33393C3.67388 8.33393 3.54358 8.36795 3.38001 8.43572C6.88616 9.68809 10.3913 12.3791 13.1141 16.2039Z" fill="url(#paint12_linear_86_686)"/>
<path fill-rule="evenodd" clip-rule="evenodd" d="M22.1948 5.93079C22.2771 5.99856 22.2773 6.09999 22.2773 6.09999L25.3093 27.6447L20.3199 24.8015L19.7657 5.677L22.0001 5.84619C22.0156 5.86313 22.1135 5.86313 22.1948 5.93079Z" fill="url(#paint13_linear_86_686)"/>
<path fill-rule="evenodd" clip-rule="evenodd" d="M21.8367 5.98179C21.8367 5.98179 21.9346 5.98179 22.0158 6.06639C22.097 6.13416 22.1137 6.2357 22.1137 6.2357L25.098 27.5435L25.3261 27.6789L22.2928 6.11722C22.2928 6.11722 22.2773 6.01568 22.2116 5.94802C22.1304 5.88025 22.0158 5.88025 22.0158 5.88025L19.7826 5.71105L21.8367 5.98179Z" fill="url(#paint14_linear_86_686)"/>
<path fill-rule="evenodd" clip-rule="evenodd" d="M0.625 26.4938L16.6681 29.6079L17.4514 11.9724L2.62006 12.394L0.625 26.4938Z" fill="url(#paint15_linear_86_686)"/>
<path fill-rule="evenodd" clip-rule="evenodd" d="M5.89139 8.58054C5.74562 8.99191 5.88914 9.42409 6.21405 9.54612C6.53785 9.66803 6.91841 9.43351 7.06529 9.02225C7.21106 8.611 7.06643 8.1787 6.74263 8.05679C6.41883 7.93476 6.03715 8.16929 5.89139 8.58054Z" fill="white"/>
<path fill-rule="evenodd" clip-rule="evenodd" d="M5.87371 8.38537C5.72794 8.79663 5.87257 9.22892 6.19637 9.35084C6.52017 9.47286 6.90184 9.23833 7.04761 8.82708C7.19337 8.41571 7.04986 7.98342 6.72495 7.8615C6.40115 7.73948 6.02059 7.974 5.87371 8.38537Z" fill="black"/>
<path fill-rule="evenodd" clip-rule="evenodd" d="M19.7825 5.69382L18.119 3.98447C18.0545 3.93365 17.9722 3.89981 17.9077 3.88287L16.6681 29.6079L20.3366 24.8014L19.7825 5.69382Z" fill="url(#paint16_linear_86_686)"/>
<path fill-rule="evenodd" clip-rule="evenodd" d="M17.4993 3.89981L3.67388 8.33393C3.67388 8.33393 3.08749 8.50324 2.94061 8.68938C2.92392 8.70632 2.92386 8.7236 2.90829 8.74055L16.8473 4.74636C16.9619 4.71248 17.2389 4.61094 17.2067 5.44021L16.3587 29.5744L16.6525 29.6252L17.891 3.90016C17.7285 3.84933 17.5483 3.88287 17.4993 3.89981Z" fill="url(#paint17_linear_86_686)"/>
<path fill-rule="evenodd" clip-rule="evenodd" d="M17.4993 3.89981L3.67388 8.33393C3.67388 8.33393 3.08749 8.50324 2.94061 8.68938C2.92392 8.70632 2.92386 8.7236 2.90829 8.74055L6.13626 7.80963L17.2389 4.23866C17.2879 4.22172 17.4671 4.18784 17.6462 4.22172L16.4233 29.5744L16.6525 29.6252L17.891 3.90016C17.7285 3.84933 17.5483 3.88287 17.4993 3.89981Z" fill="url(#paint18_linear_86_686)"/>
<path fill-rule="evenodd" clip-rule="evenodd" d="M21.0544 25.2245L20.3199 24.8015L16.6525 29.608L16.8473 29.5571C16.8473 29.5571 20.0763 25.2415 20.369 25.1061C20.5815 25.0215 21.0544 25.2245 21.0544 25.2245Z" fill="url(#paint19_linear_86_686)"/>
<path fill-rule="evenodd" clip-rule="evenodd" d="M16.6681 29.6079L20.3366 24.8014C20.3199 24.8183 18.0056 27.4416 16.6681 29.6079Z" fill="url(#paint20_linear_86_686)"/>
<path fill-rule="evenodd" clip-rule="evenodd" d="M25.375 27.6616L20.3366 24.8182C20.3199 24.8182 20.9075 24.9197 25.375 27.6616Z" fill="url(#paint21_linear_86_686)"/>
<path fill-rule="evenodd" clip-rule="evenodd" d="M13.3455 6.893C13.1986 7.30437 13.3433 7.73666 13.6671 7.85869C13.992 7.98072 14.3726 7.74619 14.5183 7.33493C14.6652 6.92357 14.5205 6.49127 14.1967 6.36925C13.8729 6.24733 13.4913 6.48175 13.3455 6.893Z" fill="white"/>
<path fill-rule="evenodd" clip-rule="evenodd" d="M13.3277 6.69859C13.1819 7.10995 13.3266 7.54224 13.6504 7.66427C13.9742 7.78618 14.3558 7.55177 14.5016 7.1404C14.6474 6.72915 14.5038 6.29685 14.18 6.17483C13.8551 6.0528 13.4746 6.28733 13.3277 6.69859Z" fill="black"/>
<path fill-rule="evenodd" clip-rule="evenodd" d="M6.46227 9.21422C6.44558 9.21422 6.41328 9.21422 6.39659 9.21422C6.13622 9.18045 5.95711 8.92654 5.98938 8.63886C6.02165 8.36801 6.95073 2.0383 10.7662 0.599788C11.7276 0.244342 12.5432 0.311999 13.163 0.836754C13.9129 1.46294 14.3202 2.7153 14.3858 4.54314C14.4348 5.82939 14.288 6.94634 14.288 6.99717C14.2557 7.2679 14.0109 7.47109 13.7494 7.42027C13.489 7.38639 13.2932 7.13259 13.3421 6.86174C13.489 5.71092 13.6515 2.54611 12.5599 1.63213C12.2172 1.34446 11.7443 1.31057 11.109 1.54754C7.83204 2.78296 6.96741 8.72346 6.96741 8.77418C6.90176 9.02808 6.70706 9.21422 6.46227 9.21422Z" fill="#595961"/>
<path fill-rule="evenodd" clip-rule="evenodd" d="M12.9672 0.870432C12.3964 0.396614 11.6464 0.328956 10.7496 0.650519C9.20067 1.24282 7.89651 2.79981 6.99966 5.15229C6.33204 6.89553 6.10285 8.46946 6.10285 8.53723C6.08727 8.62183 6.11957 8.70643 6.16853 8.7742C6.21748 8.84185 6.28309 8.89268 6.36432 8.89268C6.3799 8.89268 6.3966 8.89268 6.41329 8.89268C6.56017 8.89268 6.69033 8.7742 6.70702 8.62183C6.7226 8.55418 7.58721 2.51213 10.9621 1.24282C11.6464 0.988914 12.2005 1.0228 12.5921 1.36131C13.7494 2.32599 13.5869 5.59234 13.4401 6.76011C13.4234 6.92942 13.538 7.09861 13.7004 7.11555C13.864 7.1325 14.0264 7.01402 14.0431 6.84482C14.0598 6.65857 14.6307 2.25834 12.9672 0.870432Z" fill="#B2B2C2"/>
<path fill-rule="evenodd" clip-rule="evenodd" d="M6.39666 8.7065C6.37997 8.7065 6.37998 8.7065 6.3644 8.7065C6.26648 8.68956 6.20081 8.58802 6.2175 8.48648C6.23419 8.41871 6.44564 6.87866 7.11438 5.13543C8.01123 2.81683 9.28303 1.27667 10.7985 0.701198C11.6631 0.379635 12.3641 0.447404 12.9016 0.887449C14.4994 2.22442 13.9453 6.5571 13.913 6.74324C13.8963 6.84478 13.8151 6.91244 13.7005 6.89561C13.6037 6.87866 13.5381 6.79407 13.5381 6.67558C13.5381 6.62476 14.0922 2.37678 12.6579 1.15819C12.234 0.836623 11.6465 0.802849 10.9299 1.07359C7.48938 2.37678 6.59253 8.48648 6.59253 8.55414C6.57584 8.63873 6.49458 8.7065 6.39666 8.7065Z" fill="#B2B2C2"/>
<path fill-rule="evenodd" clip-rule="evenodd" d="M8.54859 3.86596C8.72774 3.61216 8.89129 3.35826 9.05374 3.08752C8.9892 3.17212 8.5163 4.05221 7.53823 3.91679C7.52154 3.91679 8.09238 4.10292 8.54859 3.86596Z" fill="#595961"/>
<path fill-rule="evenodd" clip-rule="evenodd" d="M7.99454 4.94895C8.14142 4.6781 8.28826 4.39042 8.40176 4.11968C8.3528 4.22122 8.02676 5.13509 6.99973 5.13509C6.99973 5.13509 7.5706 5.25357 7.99454 4.94895Z" fill="#595961"/>
<path fill-rule="evenodd" clip-rule="evenodd" d="M7.57055 6.06636C7.70074 5.77857 7.79869 5.49089 7.89661 5.20321C7.84765 5.30475 7.66851 6.23556 6.59252 6.35404C6.59252 6.3371 7.17888 6.40486 7.57055 6.06636Z" fill="#595961"/>
<path fill-rule="evenodd" clip-rule="evenodd" d="M14.092 2.76589C14.0108 2.46116 13.9296 2.17348 13.8149 1.86886C13.8472 1.9704 14.1733 2.93509 13.5057 3.62893C13.5057 3.62893 13.9941 3.29053 14.092 2.76589Z" fill="#595961"/>
<path fill-rule="evenodd" clip-rule="evenodd" d="M13.4568 1.24269C13.2287 1.02266 12.9995 0.819586 12.7714 0.633447C12.8537 0.718046 13.6193 1.34423 13.4079 2.29198C13.3912 2.29198 13.636 1.73345 13.4568 1.24269Z" fill="#595961"/>
<path fill-rule="evenodd" clip-rule="evenodd" d="M14.2556 4.32303C14.239 4.01841 14.19 3.69685 14.1411 3.39211C14.1411 3.5106 14.3046 4.50917 13.5213 5.05075C13.5213 5.05075 14.0598 4.81379 14.2556 4.32303Z" fill="#595961"/>
<path fill-rule="evenodd" clip-rule="evenodd" d="M14.3369 5.91401C14.3536 5.60939 14.3536 5.28783 14.3369 4.98321C14.3369 5.10169 14.3536 6.10027 13.5213 6.55714C13.5213 6.54031 14.0921 6.371 14.3369 5.91401Z" fill="#595961"/>
<path fill-rule="evenodd" clip-rule="evenodd" d="M7.19545 7.3016C7.29337 6.99698 7.35904 6.69236 7.42358 6.40457C7.39131 6.50611 7.24444 7.47079 6.24967 7.70776C6.26636 7.70776 6.85274 7.69082 7.19545 7.3016Z" fill="#595961"/>
<path fill-rule="evenodd" clip-rule="evenodd" d="M9.16843 2.93487C9.39654 2.73179 9.60902 2.51177 9.80486 2.2748C9.72252 2.34246 9.07049 3.03641 8.15807 2.78251C8.17365 2.78251 8.67884 3.08724 9.16843 2.93487Z" fill="#595961"/>
<path fill-rule="evenodd" clip-rule="evenodd" d="M9.90157 2.15675C10.1631 1.98755 10.4079 1.81824 10.6516 1.6321C10.5547 1.68293 9.80475 2.24135 8.94017 1.83518C8.94017 1.83518 9.3964 2.22441 9.90157 2.15675Z" fill="#595961"/>
<path fill-rule="evenodd" clip-rule="evenodd" d="M10.8964 1.59829C11.1901 1.51359 11.4672 1.41205 11.7443 1.31051C11.6464 1.34439 10.7662 1.64901 10.0485 1.00588C10.0485 1.00588 10.3912 1.51359 10.8964 1.59829Z" fill="#595961"/>
<path fill-rule="evenodd" clip-rule="evenodd" d="M11.7276 1.2937C11.9568 1.32758 12.1849 1.34453 12.4131 1.36147C12.3318 1.34453 11.6308 1.2937 11.3203 0.616693C11.337 0.616693 11.4183 1.07368 11.7276 1.2937Z" fill="#595961"/>
<path fill-rule="evenodd" clip-rule="evenodd" d="M12.6089 1.66578C12.7557 1.85192 12.9015 2.03806 13.0484 2.20737C12.9994 2.1396 12.5432 1.58118 12.7713 0.887232C12.788 0.887232 12.5432 1.27656 12.6089 1.66578Z" fill="#595961"/>
<path fill-rule="evenodd" clip-rule="evenodd" d="M13.7337 6.65854C13.7493 6.4724 14.3046 2.19054 12.7557 0.887348C12.4619 0.633553 12.1036 0.51507 11.712 0.51507C11.4182 0.51507 11.0922 0.582725 10.7495 0.71815C9.24955 1.27668 7.99438 2.78295 7.11423 5.08461C6.44549 6.81091 6.23404 8.35106 6.21735 8.41872C6.21735 8.46944 6.24968 8.52026 6.29864 8.52026H6.31528C6.36424 8.52026 6.39651 8.48638 6.39651 8.43566C6.4132 8.3679 7.29335 2.19054 10.7984 0.870406C11.5484 0.582726 12.1848 0.633552 12.641 1.02277C14.1243 2.2582 13.5702 6.57394 13.5546 6.62477C13.5546 6.67548 13.5869 6.72631 13.6359 6.72631C13.6359 6.72631 13.6358 6.72631 13.6514 6.72631C13.7004 6.74325 13.7337 6.70937 13.7337 6.65854Z" fill="url(#paint22_linear_86_686)"/>
<path fill-rule="evenodd" clip-rule="evenodd" d="M14.3858 4.54314C14.3202 2.7153 13.9129 1.47988 13.163 0.836754C12.7557 0.49836 12.2662 0.345734 11.712 0.379617C12.136 0.41339 12.5265 0.565758 12.8537 0.836495C13.6037 1.46279 14.0109 2.71516 14.0754 4.54299C14.1244 5.82925 13.9786 6.94619 13.9786 6.99702C13.9452 7.2001 13.815 7.35246 13.6515 7.40318C13.6849 7.42012 13.7004 7.42012 13.7338 7.42012C13.9942 7.454 14.239 7.26776 14.2713 6.99702C14.288 6.94619 14.4348 5.84634 14.3858 4.54314Z" fill="url(#paint23_linear_86_686)"/>
<path fill-rule="evenodd" clip-rule="evenodd" d="M10.783 1.5474C7.50604 2.78282 6.64148 8.72332 6.64148 8.79098C6.60921 8.99406 6.47788 9.14643 6.31542 9.19714C6.34769 9.21409 6.36433 9.21422 6.39659 9.21422C6.41328 9.21422 6.44558 9.21422 6.46227 9.21422C6.70706 9.21422 6.90183 9.02794 6.93521 8.79098C6.95079 8.72332 7.79868 2.79977 11.0756 1.56423C11.3048 1.47963 11.4996 1.42891 11.6798 1.41197C11.4351 1.37809 11.1246 1.42891 10.783 1.5474Z" fill="url(#paint24_linear_86_686)"/>
<defs>
<linearGradient id="paint0_linear_86_686" x1="3.54446" y1="0.514587" x2="1.55316" y2="25.9332" gradientUnits="userSpaceOnUse">
<stop stop-color="white" stop-opacity="0.65"/>
<stop offset="1" stop-color="white" stop-opacity="0.01"/>
</linearGradient>
<linearGradient id="paint1_linear_86_686" x1="3.83605" y1="17.649" x2="18.0358" y2="37.7641" gradientUnits="userSpaceOnUse">
<stop stop-opacity="0.01"/>
<stop offset="1" stop-opacity="0.4"/>
</linearGradient>
<linearGradient id="paint2_linear_86_686" x1="18.4974" y1="25.779" x2="31.6229" y2="5.85171" gradientUnits="userSpaceOnUse">
<stop stop-opacity="0.01"/>
<stop offset="1" stop-opacity="0.4"/>
</linearGradient>
<linearGradient id="paint3_linear_86_686" x1="10.836" y1="-5.48899" x2="-5.03535" y2="17.5565" gradientUnits="userSpaceOnUse">
<stop stop-color="#B8D26E"/>
<stop offset="1" stop-color="#7FB525"/>
</linearGradient>
<linearGradient id="paint4_linear_86_686" x1="32.9499" y1="-0.654398" x2="9.85522" y2="0.419935" gradientUnits="userSpaceOnUse">
<stop stop-color="#B4E034"/>
<stop offset="1" stop-color="#60A927"/>
</linearGradient>
<linearGradient id="paint5_linear_86_686" x1="-0.927801" y1="8.06186" x2="-11.3244" y2="42.2637" gradientUnits="userSpaceOnUse">
<stop stop-color="white"/>
<stop offset="1" stop-color="#CECEEB"/>
</linearGradient>
<linearGradient id="paint6_linear_86_686" x1="-21.5987" y1="57.6666" x2="49.8736" y2="56.804" gradientUnits="userSpaceOnUse">
<stop stop-color="#1D1D1B" stop-opacity="0.5"/>
<stop offset="0.038033" stop-color="#1D1D1B" stop-opacity="0.4837"/>
<stop offset="0.4243" stop-color="#1D1D1B" stop-opacity="0.3185"/>
<stop offset="1" stop-color="#1D1D1B" stop-opacity="0.01"/>
</linearGradient>
<linearGradient id="paint7_linear_86_686" x1="18.2003" y1="-11.0895" x2="-2.33212" y2="4.95535" gradientUnits="userSpaceOnUse">
<stop stop-opacity="0.01"/>
<stop offset="1" stop-opacity="0.4"/>
</linearGradient>
<linearGradient id="paint8_linear_86_686" x1="17.0232" y1="-8.19163" x2="1.05311" y2="5.73253" gradientUnits="userSpaceOnUse">
<stop stop-opacity="0.01"/>
<stop offset="1" stop-opacity="0.4"/>
</linearGradient>
<linearGradient id="paint9_linear_86_686" x1="8.03893" y1="17.8162" x2="9.63961" y2="27.638" gradientUnits="userSpaceOnUse">
<stop stop-opacity="0.01"/>
<stop offset="1" stop-opacity="0.4"/>
</linearGradient>
<linearGradient id="paint10_linear_86_686" x1="-0.225831" y1="3.14009" x2="3.50083" y2="28.7821" gradientUnits="userSpaceOnUse">
<stop stop-color="white" stop-opacity="0.5"/>
<stop offset="0.0896271" stop-color="white" stop-opacity="0.4552"/>
<stop offset="1" stop-color="white" stop-opacity="0.01"/>
</linearGradient>
<linearGradient id="paint11_linear_86_686" x1="-1.80414" y1="7.19407" x2="4.64187" y2="33.8297" gradientUnits="userSpaceOnUse">
<stop stop-opacity="0.01"/>
<stop offset="1" stop-opacity="0.4"/>
</linearGradient>
<linearGradient id="paint12_linear_86_686" x1="18.3743" y1="-5.49124" x2="-1.78772" y2="8.55356" gradientUnits="userSpaceOnUse">
<stop stop-color="white" stop-opacity="0.5"/>
<stop offset="1" stop-color="white" stop-opacity="0.01"/>
</linearGradient>
<linearGradient id="paint13_linear_86_686" x1="-14.6711" y1="45.4341" x2="37.2312" y2="45.7856" gradientUnits="userSpaceOnUse">
<stop stop-color="#1D1D1B" stop-opacity="0.5"/>
<stop offset="0.0896271" stop-color="#1D1D1B" stop-opacity="0.4552"/>
<stop offset="1" stop-color="#1D1D1B" stop-opacity="0.01"/>
</linearGradient>
<linearGradient id="paint14_linear_86_686" x1="22.4241" y1="-0.478965" x2="17.7579" y2="3.35476" gradientUnits="userSpaceOnUse">
<stop stop-color="white" stop-opacity="0.4"/>
<stop offset="1" stop-color="white" stop-opacity="0.01"/>
</linearGradient>
<linearGradient id="paint15_linear_86_686" x1="14.1915" y1="29.9376" x2="15.7798" y2="23.1468" gradientUnits="userSpaceOnUse">
<stop stop-color="#1D1D1B" stop-opacity="0.5"/>
<stop offset="0.0896271" stop-color="#1D1D1B" stop-opacity="0.4552"/>
<stop offset="1" stop-color="#1D1D1B" stop-opacity="0.01"/>
</linearGradient>
<linearGradient id="paint16_linear_86_686" x1="-11.8889" y1="57.0867" x2="59.5217" y2="57.4537" gradientUnits="userSpaceOnUse">
<stop stop-color="#1D1D1B" stop-opacity="0.5"/>
<stop offset="1" stop-color="#1D1D1B" stop-opacity="0.01"/>
</linearGradient>
<linearGradient id="paint17_linear_86_686" x1="4.31223" y1="-1.28855" x2="0.163944" y2="21.8901" gradientUnits="userSpaceOnUse">
<stop stop-color="white" stop-opacity="0.5"/>
<stop offset="1" stop-color="white" stop-opacity="0.01"/>
</linearGradient>
<linearGradient id="paint18_linear_86_686" x1="4.31223" y1="-1.28855" x2="0.163944" y2="21.8901" gradientUnits="userSpaceOnUse">
<stop stop-color="white" stop-opacity="0.5"/>
<stop offset="1" stop-color="white" stop-opacity="0.01"/>
</linearGradient>
<linearGradient id="paint19_linear_86_686" x1="5.94913" y1="-10.0739" x2="-19.2832" y2="22.0134" gradientUnits="userSpaceOnUse">
<stop stop-color="white" stop-opacity="0.5"/>
<stop offset="0.0896271" stop-color="white" stop-opacity="0.4552"/>
<stop offset="1" stop-color="white" stop-opacity="0.01"/>
</linearGradient>
<linearGradient id="paint20_linear_86_686" x1="15.1657" y1="-2.25979" x2="12.8899" y2="3.39572" gradientUnits="userSpaceOnUse">
<stop stop-opacity="0.01"/>
<stop offset="1" stop-opacity="0.4"/>
</linearGradient>
<linearGradient id="paint21_linear_86_686" x1="12.7658" y1="7.99796" x2="12.3479" y2="10.4332" gradientUnits="userSpaceOnUse">
<stop stop-opacity="0.01"/>
<stop offset="1" stop-opacity="0.4"/>
</linearGradient>
<linearGradient id="paint22_linear_86_686" x1="7.04609" y1="-1.70667" x2="-0.0556344" y2="23.2135" gradientUnits="userSpaceOnUse">
<stop stop-color="white" stop-opacity="0.65"/>
<stop offset="1" stop-color="white" stop-opacity="0.01"/>
</linearGradient>
<linearGradient id="paint23_linear_86_686" x1="4.40122" y1="15.1802" x2="13.7747" y2="36.3599" gradientUnits="userSpaceOnUse">
<stop stop-opacity="0.01"/>
<stop offset="1" stop-opacity="0.4"/>
</linearGradient>
<linearGradient id="paint24_linear_86_686" x1="10.171" y1="8.51161" x2="14.3871" y2="4.18163" gradientUnits="userSpaceOnUse">
<stop stop-opacity="0.01"/>
<stop offset="1" stop-opacity="0.4"/>
</linearGradient>
</defs>
</svg>
