<svg viewBox="0 0 28 28" fill="none" xmlns="http://www.w3.org/2000/svg">
<path d="M28 14C28 21.732 21.732 28 14 28C6.26801 28 0 21.732 0 14C0 6.26801 6.26801 0 14 0C21.732 0 28 6.26801 28 14Z" fill="#028CB0"/>
<path d="M4.45538 14C4.45538 17.7823 6.65539 21.04 9.83692 22.5885L5.28462 10.1162C4.73798 11.338 4.45541 12.6615 4.45538 14ZM14 23.5446C15.1085 23.5446 16.1746 23.35 17.1731 23.0031L17.1054 22.8762L14.1692 14.8377L11.3092 23.1554C12.1554 23.4092 13.0608 23.5446 14 23.5446ZM15.3115 9.52385L18.7638 19.7877L19.72 16.6062C20.1262 15.2862 20.4392 14.3385 20.4392 13.5177C20.4392 12.3331 20.0162 11.5208 19.6608 10.8946C19.17 10.0992 18.7215 9.43077 18.7215 8.65231C18.7215 7.77231 19.3815 6.96 20.3292 6.96H20.4477C18.689 5.34546 16.3874 4.45141 14 4.45538C12.4192 4.45509 10.8632 4.84777 9.47182 5.59809C8.08047 6.34842 6.89746 7.43285 6.02923 8.75385L6.63846 8.77077C7.63692 8.77077 9.17692 8.64385 9.17692 8.64385C9.70154 8.61846 9.76077 9.37154 9.24462 9.43077C9.24462 9.43077 8.72846 9.49846 8.14462 9.52385L11.6308 19.8638L13.7208 13.6023L12.2315 9.52385C11.898 9.50544 11.565 9.47722 11.2331 9.43923C10.7169 9.40538 10.7762 8.61846 11.2923 8.64385C11.2923 8.64385 12.8662 8.77077 13.8054 8.77077C14.8038 8.77077 16.3438 8.64385 16.3438 8.64385C16.86 8.61846 16.9277 9.37154 16.4115 9.43077C16.4115 9.43077 15.8954 9.49 15.3115 9.52385ZM18.7977 22.25C20.2416 21.4104 21.4399 20.2066 22.2729 18.7589C23.1059 17.3112 23.5444 15.6703 23.5446 14C23.5446 12.3415 23.1215 10.7846 22.3769 9.42231C22.5281 10.9211 22.3012 12.4339 21.7169 13.8223L18.7977 22.25ZM14 25C11.0826 25 8.28473 23.8411 6.22183 21.7782C4.15893 19.7153 3 16.9174 3 14C3 11.0826 4.15893 8.28473 6.22183 6.22183C8.28473 4.15893 11.0826 3 14 3C16.9174 3 19.7153 4.15893 21.7782 6.22183C23.8411 8.28473 25 11.0826 25 14C25 16.9174 23.8411 19.7153 21.7782 21.7782C19.7153 23.8411 16.9174 25 14 25Z" fill="white"/>
</svg>
